# xmcd
#
# Track frame offsets:
# 150
# 17092
# 35147
# 49777
# 63075
# 77072
# 93555
# 106642
# 120085
# 133622
# 148072
# 163712
# 179070
# 196357
# 208495
# 224895
#
# Disc length: 3152 seconds
#
#
# Revision: 0
# Processed by: cddbd v1.5.1PL2 Copyright (c) Steve Scherf et al.
# Submitted via: FreeRIP 2.943 
#
DISCID=f00c4e10
DTITLE=Forró brasil - Forró brasil
DYEAR=1900
DGENRE=forró
TTITLE0=Resumo do cd
TTITLE1=Preciso te encontrar
TTITLE2=viver te encontrar
TTITLE3=nao da
TTITLE4=custe o que custar
TTITLE5=dancando lambada - voce ganhou de mim
TTITLE6=pra sempre em mim
TTITLE7=pense em mim
TTITLE8=calcinha de croche
TTITLE9=voz do coracao
TTITLE10=duas paixoes
TTITLE11=overdose de delicias
TTITLE12=minha vida
TTITLE13=nao vou voltar atras - minha vida se voce
TTITLE14=nao da mais
TTITLE15=coracao chorao
EXTD=
EXTT0=
EXTT1=
EXTT2=
EXTT3=
EXTT4=
EXTT5=
EXTT6=
EXTT7=
EXTT8=
EXTT9=
EXTT10=
EXTT11=
EXTT12=
EXTT13=
EXTT14=
EXTT15=
PLAYORDER=
